<svg width="17" height="16" viewBox="0 0 17 16" fill="none" xmlns="http://www.w3.org/2000/svg">
<g clip-path="url(#clip0_26115_1496)">
<path d="M16.834 8C16.834 11.9931 13.9084 15.3028 10.084 15.9028V10.3125H11.948L12.3027 8H10.084V6.49937C10.084 5.86656 10.394 5.25 11.3877 5.25H12.3965V3.28125C12.3965 3.28125 11.4809 3.125 10.6055 3.125C8.77836 3.125 7.58398 4.2325 7.58398 6.2375V8H5.55273V10.3125H7.58398V15.9028C3.75961 15.3028 0.833984 11.9931 0.833984 8C0.833984 3.58187 4.41586 0 8.83398 0C13.2521 0 16.834 3.58187 16.834 8Z" fill="#3B5999"/>
<path d="M11.948 10.3125L12.3027 8H10.084V6.49934C10.084 5.86669 10.3939 5.25 11.3877 5.25H12.3965V3.28125C12.3965 3.28125 11.481 3.125 10.6057 3.125C8.77833 3.125 7.58398 4.2325 7.58398 6.2375V8H5.55273V10.3125H7.58398V15.9028C7.9913 15.9667 8.40873 16 8.83398 16C9.25923 16 9.67667 15.9667 10.084 15.9028V10.3125H11.948Z" fill="white"/>
</g>
<defs>
<clipPath id="clip0_26115_1496">
<rect width="16" height="16" fill="white" transform="translate(0.833984)"/>
</clipPath>
</defs>
</svg>
