<svg width="17" height="16" viewBox="0 0 17 16" fill="none" xmlns="http://www.w3.org/2000/svg">
<g clip-path="url(#clip0_26115_354)">
<path d="M4.21293 9.66844L3.65599 11.7476L1.6204 11.7906C1.01205 10.6623 0.666992 9.37131 0.666992 7.99944C0.666992 6.67284 0.989617 5.42184 1.56149 4.32031H1.56193L3.37418 4.65256L4.16805 6.45394C4.0019 6.93834 3.91134 7.45834 3.91134 7.99944C3.9114 8.58669 4.01777 9.14934 4.21293 9.66844Z" fill="#4A5568"/>
<path d="M16.5271 6.50586C16.619 6.9898 16.6669 7.48958 16.6669 8.00036C16.6669 8.57311 16.6067 9.1318 16.492 9.6707C16.1025 11.5045 15.0849 13.1059 13.6753 14.239L13.6748 14.2386L11.3922 14.1221L11.0691 12.1054C12.0045 11.5569 12.7355 10.6984 13.1206 9.6707H8.84277V6.50586H13.183H16.5271Z" fill="#518EF8"/>
<path d="M13.6746 14.2391L13.6751 14.2396C12.3041 15.3415 10.5625 16.0009 8.66671 16.0009C5.62012 16.0009 2.97134 14.298 1.62012 11.7921L4.21265 9.66992C4.88824 11.473 6.62759 12.7565 8.66671 12.7565C9.54318 12.7565 10.3643 12.5196 11.0689 12.106L13.6746 14.2391Z" fill="#28B446"/>
<path d="M13.7734 1.84175L11.1817 3.9635C10.4525 3.50769 9.59052 3.24437 8.66702 3.24437C6.58174 3.24437 4.80987 4.58678 4.16812 6.4545L1.56196 4.32088H1.56152C2.89296 1.75384 5.57515 0 8.66702 0C10.6081 0 12.3879 0.691437 13.7734 1.84175Z" fill="#F14336"/>
</g>
<defs>
<clipPath id="clip0_26115_354">
<rect width="16" height="16" fill="white" transform="translate(0.666992)"/>
</clipPath>
</defs>
</svg>
